<mxfile host="Electron" agent="Mozilla/5.0 (Macintosh; Intel Mac OS X 10_15_7) AppleWebKit/537.36 (KHTML, like Gecko) draw.io/26.1.1 Chrome/132.0.6834.210 Electron/34.3.3 Safari/537.36" version="26.1.1">
  <diagram name="Page-1" id="WYswWvLZGElAseJzOD_Q">
    <mxGraphModel dx="1114" dy="878" grid="1" gridSize="10" guides="1" tooltips="1" connect="1" arrows="1" fold="1" page="1" pageScale="1" pageWidth="827" pageHeight="1169" math="0" shadow="0">
      <root>
        <mxCell id="0" />
        <mxCell id="1" parent="0" />
        <mxCell id="H_V2JQJNFt6nm8rk0ewl-12" style="edgeStyle=orthogonalEdgeStyle;rounded=0;orthogonalLoop=1;jettySize=auto;html=1;entryX=0.5;entryY=0;entryDx=0;entryDy=0;endArrow=block;endFill=1;" edge="1" parent="1" source="H_V2JQJNFt6nm8rk0ewl-3" target="H_V2JQJNFt6nm8rk0ewl-9">
          <mxGeometry relative="1" as="geometry" />
        </mxCell>
        <mxCell id="H_V2JQJNFt6nm8rk0ewl-3" value="Job&lt;div&gt;runBlocking&lt;/div&gt;" style="rounded=0;whiteSpace=wrap;html=1;" vertex="1" parent="1">
          <mxGeometry x="280" y="120" width="100" height="40" as="geometry" />
        </mxCell>
        <mxCell id="H_V2JQJNFt6nm8rk0ewl-15" style="rounded=0;orthogonalLoop=1;jettySize=auto;html=1;entryX=0.5;entryY=0;entryDx=0;entryDy=0;endArrow=block;endFill=1;exitX=0.5;exitY=1;exitDx=0;exitDy=0;" edge="1" parent="1" source="H_V2JQJNFt6nm8rk0ewl-9" target="H_V2JQJNFt6nm8rk0ewl-10">
          <mxGeometry relative="1" as="geometry" />
        </mxCell>
        <mxCell id="H_V2JQJNFt6nm8rk0ewl-16" style="rounded=0;orthogonalLoop=1;jettySize=auto;html=1;endArrow=block;endFill=1;exitX=0.5;exitY=1;exitDx=0;exitDy=0;" edge="1" parent="1" source="H_V2JQJNFt6nm8rk0ewl-9" target="H_V2JQJNFt6nm8rk0ewl-11">
          <mxGeometry relative="1" as="geometry" />
        </mxCell>
        <mxCell id="H_V2JQJNFt6nm8rk0ewl-9" value="Job&lt;div&gt;coroutineScope&lt;/div&gt;" style="rounded=0;whiteSpace=wrap;html=1;" vertex="1" parent="1">
          <mxGeometry x="280" y="210" width="100" height="40" as="geometry" />
        </mxCell>
        <mxCell id="H_V2JQJNFt6nm8rk0ewl-10" value="Deferred&lt;div&gt;dbResultsDeferred&lt;/div&gt;" style="rounded=0;whiteSpace=wrap;html=1;" vertex="1" parent="1">
          <mxGeometry x="190" y="320" width="140" height="40" as="geometry" />
        </mxCell>
        <mxCell id="H_V2JQJNFt6nm8rk0ewl-11" value="Deferred&lt;div&gt;serverResultsDeferred&lt;/div&gt;" style="rounded=0;whiteSpace=wrap;html=1;" vertex="1" parent="1">
          <mxGeometry x="349" y="320" width="150" height="40" as="geometry" />
        </mxCell>
      </root>
    </mxGraphModel>
  </diagram>
</mxfile>
